<?xml version="1.0" encoding="UTF-8" standalone="no"?>
<!-- Creator: CorelDRAW X7 -->

<svg
   xmlns:dc="http://purl.org/dc/elements/1.1/"
   xmlns:cc="http://creativecommons.org/ns#"
   xmlns:rdf="http://www.w3.org/1999/02/22-rdf-syntax-ns#"
   xmlns:svg="http://www.w3.org/2000/svg"
   xmlns="http://www.w3.org/2000/svg"
   xmlns:sodipodi="http://sodipodi.sourceforge.net/DTD/sodipodi-0.dtd"
   xmlns:inkscape="http://www.inkscape.org/namespaces/inkscape"
   xml:space="preserve"
   width="133.63126mm"
   height="24.14094mm"
   version="1.1"
   style="clip-rule:evenodd;fill-rule:evenodd;image-rendering:optimizeQuality;shape-rendering:geometricPrecision;text-rendering:geometricPrecision"
   viewBox="0 0 13363.299 2414.0839"
   id="svg57"
   sodipodi:docname="tejo_cr_path.svg"
   inkscape:version="0.92.3 (2405546, 2018-03-11)"
   inkscape:export-filename="/home/mia/Downloads/a.png"
   inkscape:export-xdpi="152.06"
   inkscape:export-ydpi="152.06"><metadata
   id="metadata61"><rdf:RDF><cc:Work
       rdf:about=""><dc:format>image/svg+xml</dc:format><dc:type
         rdf:resource="http://purl.org/dc/dcmitype/StillImage" /><dc:title /></cc:Work></rdf:RDF></metadata><sodipodi:namedview
   pagecolor="#ffffff"
   bordercolor="#666666"
   borderopacity="1"
   objecttolerance="10"
   gridtolerance="10"
   guidetolerance="10"
   inkscape:pageopacity="0"
   inkscape:pageshadow="2"
   inkscape:window-width="1920"
   inkscape:window-height="1016"
   id="namedview59"
   showgrid="false"
   inkscape:zoom="2.3834703"
   inkscape:cx="92.001377"
   inkscape:cy="-17.21948"
   inkscape:window-x="1920"
   inkscape:window-y="376"
   inkscape:window-maximized="1"
   inkscape:current-layer="text18"
   fit-margin-top="0"
   fit-margin-left="0"
   fit-margin-right="0"
   fit-margin-bottom="0" />
 <defs
   id="defs48">
  <style
   type="text/css"
   id="style46">
   <![CDATA[
    .fil0 {fill:white}
    .fil1 {fill:#009846;fill-rule:nonzero}
   ]]>
  </style>
 </defs>
 <g
   id="Warstwa_x0020_1"
   transform="translate(0.14424757,0.09041902)">
  <metadata
   id="CorelCorpID_0Corel-Layer" />
  <g
   id="_2307182666128">
   <path
   class="fil0"
   d="m 3539,2299 -750,28 c 9,-1 12,-4 11,-14 0,-96 0,-192 0,-287 0,-13 2,-18 16,-18 33,1 66,3 98,-2 26,-3 51,-10 70,-30 20,-22 24,-50 24,-79 0,-394 0,-788 0,-1182 0,-14 3,-17 17,-17 123,0 247,0 370,0 13,0 17,3 17,17 -1,411 0,822 -1,1233 0,54 -6,108 -20,160 -24,91 -75,158 -163,194 -6,3 -13,3 -18,9 60,-2 119,-5 178,-7 50,-2 100,-4 151,-5 z m -786,30 -173,6 c 58,-2 115,-4 173,-6 z M 2142,1186 c -78,0 -156,-1 -233,0 -14,0 -15,-4 -13,-15 16,-74 46,-140 107,-187 111,-85 299,-68 369,110 10,25 15,51 18,77 2,11 -1,15 -13,15 -79,-1 -157,0 -235,0 z m 2383,131 c -1,73 -13,148 -49,217 -77,148 -252,141 -333,74 -45,-39 -72,-89 -87,-145 -30,-115 -28,-228 14,-340 23,-62 61,-112 125,-137 94,-36 224,-19 287,118 31,66 42,137 43,213 z m -2180,94 c 144,0 288,0 432,1 15,0 18,-5 18,-18 3,-116 -10,-230 -51,-340 -59,-155 -159,-273 -314,-338 -142,-61 -291,-71 -440,-35 -225,56 -383,191 -463,410 -47,127 -48,259 -19,390 49,218 178,366 390,440 109,38 222,46 336,38 100,-8 196,-32 285,-80 126,-69 210,-172 251,-310 3,-12 2,-15 -12,-15 -116,0 -233,0 -349,0 -10,0 -15,3 -19,12 -19,39 -49,68 -86,89 -62,34 -128,40 -196,29 -71,-12 -128,-47 -167,-108 -29,-45 -41,-96 -47,-149 -1,-13 2,-16 15,-16 145,0 290,0 436,0 z M 4280,662 c -47,0 -92,4 -138,13 -173,34 -312,122 -406,273 -104,164 -126,343 -83,530 41,182 144,320 309,408 143,77 297,93 455,63 210,-41 363,-158 452,-354 61,-134 73,-275 46,-419 C 4889,1037 4825,918 4719,823 4594,711 4445,663 4280,662 Z M 718,1280 c 1,81 -2,183 1,284 2,52 7,104 19,155 22,87 70,153 157,185 63,24 129,30 196,33 88,4 175,-5 263,-10 14,-1 16,-5 16,-18 0,-87 0,-173 0,-260 0,-22 0,-21 -22,-20 -42,3 -84,8 -127,3 -65,-7 -100,-44 -100,-110 0,-183 0,-366 0,-550 0,-11 3,-14 14,-13 73,0 145,0 218,0 13,0 17,-2 17,-16 -1,-77 0,-153 0,-230 0,-12 -2,-15 -14,-15 -73,0 -145,0 -217,1 -14,0 -18,-3 -18,-18 0,-113 0,-227 0,-340 0,-12 -3,-15 -14,-15 -125,1 -249,1 -373,0 -13,0 -17,3 -17,16 1,114 1,227 1,341 0,12 -2,16 -15,16 -59,-1 -117,-1 -175,-1 -11,0 -14,3 -13,13 0,78 0,157 0,235 -1,10 2,13 13,13 58,0 116,0 173,0 13,-1 17,2 17,16 -1,95 0,190 0,305 z M 3209,546 c 63,0 125,-1 187,0 13,0 16,-4 16,-16 -1,-93 -1,-186 0,-279 0,-11 -2,-15 -14,-15 -126,1 -251,1 -377,0 -11,0 -13,4 -13,14 0,94 0,188 0,282 0,11 3,14 14,14 62,-1 125,0 187,0 z"
   id="path51"
   inkscape:connector-curvature="0"
   style="fill:#ffffff" />
   <path
   class="fil1"
   d="m 3210,2311 c 5,-6 12,-6 18,-9 88,-36 139,-103 163,-194 14,-52 20,-106 20,-160 1,-411 0,-822 1,-1233 0,-14 -4,-17 -17,-17 -123,0 -247,0 -370,0 -14,0 -17,3 -17,17 0,394 0,788 0,1182 0,29 -4,57 -24,79 -19,20 -44,27 -70,30 -32,5 -65,3 -98,2 -14,0 -16,5 -16,18 0,95 0,191 0,287 1,11 -2,14 -14,14 -119,5 -237,10 -356,14 -67,3 -134,5 -202,8 -130,4 -261,9 -391,14 -101,4 -203,8 -304,12 -131,5 -261,10 -392,15 -101,4 -202,8 -304,12 -107,4 -214,10 -321,12 -100,1 -206,-51 -225,-187 C 274,2104 256,1981 239,1858 221,1729 203,1600 184,1471 164,1328 143,1186 123,1043 102,893 81,742 59,591 40,456 20,321 2,186 -5,131 4,79 46,38 73,11 108,0 145,0 c 63,-1 127,5 190,8 119,5 238,11 357,16 126,6 251,12 377,18 104,5 209,10 314,15 104,5 209,10 314,15 126,6 252,12 378,18 125,6 251,12 376,18 126,5 251,11 377,17 105,5 209,10 314,15 105,5 210,10 314,15 126,6 251,12 377,18 126,6 252,12 378,18 125,6 251,12 376,18 105,5 210,9 315,14 97,5 194,8 292,15 67,5 125,30 159,92 23,41 22,86 17,131 -8,75 -15,151 -23,227 -8,85 -17,170 -25,255 -8,75 -15,149 -22,223 -8,76 -15,151 -23,226 -7,75 -14,149 -22,223 -8,87 -17,173 -25,259 -6,53 -11,106 -16,159 -10,88 -67,200 -207,208 -76,4 -152,6 -228,9 -131,5 -261,10 -392,15 -101,4 -202,8 -304,12 -139,6 -279,12 -419,17 -92,4 -184,7 -276,10 -59,2 -118,5 -178,7 z M 2142,1186 c -78,0 -156,-1 -233,0 -14,0 -15,-4 -13,-15 16,-74 46,-140 107,-187 111,-85 299,-68 369,110 10,25 15,51 18,77 2,11 -1,15 -13,15 -79,-1 -157,0 -235,0 z m 2383,131 c -1,73 -13,148 -49,217 -77,148 -252,141 -333,74 -45,-39 -72,-89 -87,-145 -30,-115 -28,-228 14,-340 23,-62 61,-112 125,-137 94,-36 224,-19 287,118 31,66 42,137 43,213 z m -2180,94 c 144,0 288,0 432,1 15,0 18,-5 18,-18 3,-116 -10,-230 -51,-340 -59,-155 -159,-273 -314,-338 -142,-61 -291,-71 -440,-35 -225,56 -383,191 -463,410 -47,127 -48,259 -19,390 49,218 178,366 390,440 109,38 222,46 336,38 100,-8 196,-32 285,-80 126,-69 210,-172 251,-310 3,-12 2,-15 -12,-15 -116,0 -233,0 -349,0 -10,0 -15,3 -19,12 -19,39 -49,68 -86,89 -62,34 -128,40 -196,29 -71,-12 -128,-47 -167,-108 -29,-45 -41,-96 -47,-149 -1,-13 2,-16 15,-16 145,0 290,0 436,0 z M 4280,662 c -47,0 -92,4 -138,13 -173,34 -312,122 -406,273 -104,164 -126,343 -83,530 41,182 144,320 309,408 143,77 297,93 455,63 210,-41 363,-158 452,-354 61,-134 73,-275 46,-419 C 4889,1037 4825,918 4719,823 4594,711 4445,663 4280,662 Z M 718,1280 c 1,81 -2,183 1,284 2,52 7,104 19,155 22,87 70,153 157,185 63,24 129,30 196,33 88,4 175,-5 263,-10 14,-1 16,-5 16,-18 0,-87 0,-173 0,-260 0,-22 0,-21 -22,-20 -42,3 -84,8 -127,3 -65,-7 -100,-44 -100,-110 0,-183 0,-366 0,-550 0,-11 3,-14 14,-13 73,0 145,0 218,0 13,0 17,-2 17,-16 -1,-77 0,-153 0,-230 0,-12 -2,-15 -14,-15 -73,0 -145,0 -217,1 -14,0 -18,-3 -18,-18 0,-113 0,-227 0,-340 0,-12 -3,-15 -14,-15 -125,1 -249,1 -373,0 -13,0 -17,3 -17,16 1,114 1,227 1,341 0,12 -2,16 -15,16 -59,-1 -117,-1 -175,-1 -11,0 -14,3 -13,13 0,78 0,157 0,235 -1,10 2,13 13,13 58,0 116,0 173,0 13,-1 17,2 17,16 -1,95 0,190 0,305 z M 3209,546 c 63,0 125,-1 187,0 13,0 16,-4 16,-16 -1,-93 -1,-186 0,-279 0,-11 -2,-15 -14,-15 -126,1 -251,1 -377,0 -11,0 -13,4 -13,14 0,94 0,188 0,282 0,11 3,14 14,14 62,-1 125,0 187,0 z"
   id="path53"
   inkscape:connector-curvature="0"
   style="fill:#009846;fill-rule:nonzero" />
  </g>
 </g>
<text
   xml:space="preserve"
   style="font-style:normal;font-variant:normal;font-weight:normal;font-stretch:normal;font-size:1058.3470459px;line-height:1.25;font-family:Roboto;-inkscape-font-specification:Roboto;letter-spacing:0px;word-spacing:0px;fill:#000000;fill-opacity:1;stroke:none;stroke-width:26.45867729"
   x="6072.3389"
   y="1348.4242"
   id="text14"><tspan
     sodipodi:role="line"
     id="tspan12"
     x="6072.3389"
     y="2274.4778"
     style="font-style:normal;font-variant:normal;font-weight:normal;font-stretch:normal;font-family:Roboto;-inkscape-font-specification:Roboto;stroke-width:26.45867729" /></text>


<g
   aria-label="centra reto"
   style="font-style:normal;font-weight:normal;font-size:1058.3470459px;line-height:1.25;font-family:sans-serif;letter-spacing:0px;word-spacing:0px;fill:#f18c07;fill-opacity:1;stroke:none;stroke-width:26.45867729"
   id="text18"><path
     d="m 6093.8809,1610.1365 q 62.0125,0 100.7703,-34.1069 38.7579,-34.1069 40.3082,-90.6933 h 210.0674 q -0.7751,85.2672 -46.5094,156.5816 -45.7342,70.5393 -125.5753,110.0723 -79.066,38.7578 -175.1854,38.7578 -179.8363,0 -283.7073,-113.948 -103.871,-114.7232 -103.871,-316.2639 v -14.728 q 0,-193.7891 103.0958,-309.2874 103.0958,-115.49835 282.9322,-115.49835 157.3567,0 251.9258,89.91815 95.3443,89.143 96.8946,237.9731 h -210.0674 q -1.5503,-65.1132 -40.3082,-105.4213 -38.7578,-41.0833 -102.3206,-41.0833 -78.2908,0 -118.599,57.3616 -39.533,56.5864 -39.533,184.4872 v 23.2547 q 0,129.4512 39.533,186.0376 39.533,56.5864 120.1493,56.5864 z"
     style="font-style:normal;font-variant:normal;font-weight:bold;font-stretch:normal;font-size:1587.52062988px;font-family:Roboto;-inkscape-font-specification:'Roboto Bold';fill:#f18c07;fill-opacity:1;stroke-width:26.45867729"
     id="path2206" /><path
     d="m 6958.9556,1790.748 q -184.4873,0 -300.7607,-113.1729 -115.4984,-113.1728 -115.4984,-301.5359 v -21.7043 q 0,-126.3506 48.8349,-225.5706 48.8349,-99.9952 137.9779,-153.48099 89.9181,-54.26096 204.6413,-54.26096 172.0847,0 270.5296,108.52195 99.2201,108.5219 99.2201,307.7371 v 91.4685 h -534.0829 q 10.8522,82.1666 65.1131,131.7766 55.0362,49.61 138.7531,49.61 129.4511,0 202.3158,-93.7939 l 110.0723,123.2499 q -50.3852,71.3144 -136.4276,111.6225 -86.0424,39.533 -190.6885,39.533 z m -25.5802,-688.339 q -66.6634,0 -108.5219,44.9591 -41.0833,44.959 -52.7106,128.6759 h 311.6129 v -17.8286 q -1.5503,-74.415 -40.3081,-114.7231 -38.7579,-41.0833 -110.0723,-41.0833 z"
     style="font-style:normal;font-variant:normal;font-weight:bold;font-stretch:normal;font-size:1587.52062988px;font-family:Roboto;-inkscape-font-specification:'Roboto Bold';fill:#f18c07;fill-opacity:1;stroke-width:26.45867729"
     id="path2208" /><path
     d="m 7637.9928,936.52548 6.9764,96.89452 q 89.9182,-112.39765 241.0737,-112.39765 133.3269,0 198.4401,78.29081 65.1131,78.29084 66.6635,234.09724 v 541.8345 h -224.0203 v -536.4084 q 0,-71.3144 -31.0063,-103.0958 -31.0062,-32.5566 -103.0958,-32.5566 -94.5691,0 -141.8536,80.6163 v 591.4445 H 7427.1502 V 936.52548 Z"
     style="font-style:normal;font-variant:normal;font-weight:bold;font-stretch:normal;font-size:1587.52062988px;font-family:Roboto;-inkscape-font-specification:'Roboto Bold';fill:#f18c07;fill-opacity:1;stroke-width:26.45867729"
     id="path2210" /><path
     d="m 8589.885,730.33383 v 206.19165 h 143.4039 V 1100.8587 H 8589.885 v 418.5845 q 0,46.5094 17.8286,66.6635 17.8286,20.154 68.2138,20.154 37.2075,0 65.8883,-5.4261 v 169.7593 q -65.8883,20.1541 -135.6524,20.1541 -235.6476,0 -240.2986,-237.9731 V 1100.8587 H 8243.39 V 936.52548 h 122.4747 V 730.33383 Z"
     style="font-style:normal;font-variant:normal;font-weight:bold;font-stretch:normal;font-size:1587.52062988px;font-family:Roboto;-inkscape-font-specification:'Roboto Bold';fill:#f18c07;fill-opacity:1;stroke-width:26.45867729"
     id="path2212" /><path
     d="m 9329.3844,1146.5929 q -45.7342,-6.2012 -80.6162,-6.2012 -127.1257,0 -166.6587,86.0423 v 548.8109 H 8858.0893 V 936.52548 h 211.6177 l 6.2012,99.99522 q 67.4387,-115.49835 186.8128,-115.49835 37.2075,0 69.7641,10.07703 z"
     style="font-style:normal;font-variant:normal;font-weight:bold;font-stretch:normal;font-size:1587.52062988px;font-family:Roboto;-inkscape-font-specification:'Roboto Bold';fill:#f18c07;fill-opacity:1;stroke-width:26.45867729"
     id="path2214" /><path
     d="m 9902.225,1775.2449 q -15.5032,-30.2311 -22.4796,-75.1902 -81.3914,90.6933 -211.6177,90.6933 -123.2499,0 -204.6413,-71.3144 -80.6163,-71.3144 -80.6163,-179.8363 0,-133.3269 98.4449,-204.6414 99.22,-71.3144 286.0327,-72.0895 h 103.0958 v -48.0597 q 0,-58.1368 -30.2311,-93.0188 -29.4559,-34.8821 -93.7939,-34.8821 -56.5864,0 -89.143,27.1305 -31.7814,27.1305 -31.7814,74.4151 h -224.0203 q 0,-72.8648 44.9591,-134.8773 44.9591,-62.01251 127.1257,-96.89455 82.1666,-35.6572 184.4872,-35.6572 155.0314,0 245.7242,78.29081 91.469,77.51564 91.469,218.59414 v 363.5484 q 0.775,119.3741 33.332,180.6115 v 13.1777 z m -185.2625,-155.8065 q 49.6101,0 91.4685,-21.7044 41.8585,-22.4795 62.0125,-59.687 v -144.1792 h -83.7169 q -168.2089,0 -179.0611,116.2735 l -0.7752,13.1777 q 0,41.8584 29.456,68.9889 29.4559,27.1305 80.6162,27.1305 z"
     style="font-style:normal;font-variant:normal;font-weight:bold;font-stretch:normal;font-size:1587.52062988px;font-family:Roboto;-inkscape-font-specification:'Roboto Bold';fill:#f18c07;fill-opacity:1;stroke-width:26.45867729"
     id="path2216" /><path
     d="m 11137.049,1146.5929 q -45.734,-6.2012 -80.616,-6.2012 -127.125,0 -166.658,86.0423 v 548.8109 h -224.021 V 936.52548 h 211.618 l 6.201,99.99522 q 67.439,-115.49835 186.813,-115.49835 37.208,0 69.764,10.07703 z"
     style="font-style:normal;font-variant:normal;font-weight:bold;font-stretch:normal;font-size:1587.52062988px;font-family:Roboto;-inkscape-font-specification:'Roboto Bold';fill:#f18c07;fill-opacity:1;stroke-width:26.45867729"
     id="path2218" /><path
     d="m 11616.096,1790.748 q -184.487,0 -300.761,-113.1729 -115.498,-113.1728 -115.498,-301.5359 v -21.7043 q 0,-126.3506 48.835,-225.5706 48.835,-99.9952 137.978,-153.48099 89.918,-54.26096 204.641,-54.26096 172.085,0 270.53,108.52195 99.22,108.5219 99.22,307.7371 v 91.4685 h -534.083 q 10.852,82.1666 65.113,131.7766 55.036,49.61 138.753,49.61 129.451,0 202.316,-93.7939 l 110.072,123.2499 q -50.385,71.3144 -136.427,111.6225 -86.043,39.533 -190.689,39.533 z m -25.58,-688.339 q -66.663,0 -108.522,44.9591 -41.083,44.959 -52.711,128.6759 h 311.613 v -17.8286 q -1.55,-74.415 -40.308,-114.7231 -38.758,-41.0833 -110.072,-41.0833 z"
     style="font-style:normal;font-variant:normal;font-weight:bold;font-stretch:normal;font-size:1587.52062988px;font-family:Roboto;-inkscape-font-specification:'Roboto Bold';fill:#f18c07;fill-opacity:1;stroke-width:26.45867729"
     id="path2220" /><path
     d="m 12357.146,730.33383 v 206.19165 h 143.404 v 164.33322 h -143.404 v 418.5845 q 0,46.5094 17.829,66.6635 17.828,20.154 68.213,20.154 37.208,0 65.889,-5.4261 v 169.7593 q -65.889,20.1541 -135.653,20.1541 -235.647,0 -240.298,-237.9731 v -451.9162 h -122.475 V 936.52548 h 122.475 V 730.33383 Z"
     style="font-style:normal;font-variant:normal;font-weight:bold;font-stretch:normal;font-size:1587.52062988px;font-family:Roboto;-inkscape-font-specification:'Roboto Bold';fill:#f18c07;fill-opacity:1;stroke-width:26.45867729"
     id="path2222" /><path
     d="m 12568.764,1348.1336 q 0,-124.8002 48.06,-222.4699 48.059,-97.6697 137.977,-151.15555 90.694,-53.4858 210.068,-53.4858 169.759,0 276.731,103.87095 107.747,103.871 120.149,282.157 l 1.55,57.3616 q 0,193.014 -107.746,310.0626 -107.747,116.2735 -289.134,116.2735 -181.386,0 -289.908,-116.2735 -107.747,-116.2735 -107.747,-316.2639 z m 224.02,16.2783 q 0,119.3741 44.959,182.9369 44.959,62.7877 128.676,62.7877 81.392,0 127.126,-62.0125 45.734,-62.7877 45.734,-199.9904 0,-117.0486 -45.734,-181.3866 -45.734,-64.338 -128.676,-64.338 -82.167,0 -127.126,64.338 -44.959,63.5628 -44.959,197.6649 z"
     style="font-style:normal;font-variant:normal;font-weight:bold;font-stretch:normal;font-size:1587.52062988px;font-family:Roboto;-inkscape-font-specification:'Roboto Bold';fill:#f18c07;fill-opacity:1;stroke-width:26.45867729"
     id="path2224" /></g>

</svg>